<?xml version="1.0" encoding="UTF-8" standalone="no"?>
<!-- Created with Inkscape (http://www.inkscape.org/) -->

<svg
   xmlns:dc="http://purl.org/dc/elements/1.1/"
   xmlns:cc="http://creativecommons.org/ns#"
   xmlns:rdf="http://www.w3.org/1999/02/22-rdf-syntax-ns#"
   xmlns:svg="http://www.w3.org/2000/svg"
   xmlns="http://www.w3.org/2000/svg"
   xmlns:sodipodi="http://sodipodi.sourceforge.net/DTD/sodipodi-0.dtd"
   xmlns:inkscape="http://www.inkscape.org/namespaces/inkscape"
   width="100"
   height="331.49219"
   id="svg2"
   version="1.1"
   inkscape:version="0.47 r22583"
   sodipodi:docname="spadespagnole.svg">
  <defs
     id="defs4">
    <inkscape:perspective
       sodipodi:type="inkscape:persp3d"
       inkscape:vp_x="0 : 526.18109 : 1"
       inkscape:vp_y="0 : 1000 : 0"
       inkscape:vp_z="744.09448 : 526.18109 : 1"
       inkscape:persp3d-origin="372.04724 : 350.78739 : 1"
       id="perspective10" />
    <inkscape:perspective
       id="perspective2824"
       inkscape:persp3d-origin="0.5 : 0.33333333 : 1"
       inkscape:vp_z="1 : 0.5 : 1"
       inkscape:vp_y="0 : 1000 : 0"
       inkscape:vp_x="0 : 0.5 : 1"
       sodipodi:type="inkscape:persp3d" />
  </defs>
  <sodipodi:namedview
     id="base"
     pagecolor="#ffffff"
     bordercolor="#666666"
     borderopacity="1.0"
     inkscape:pageopacity="0.0"
     inkscape:pageshadow="2"
     inkscape:zoom="1.979899"
     inkscape:cx="-70.720888"
     inkscape:cy="179.7528"
     inkscape:document-units="px"
     inkscape:current-layer="layer1"
     showgrid="false"
     inkscape:window-width="1280"
     inkscape:window-height="968"
     inkscape:window-x="-4"
     inkscape:window-y="-4"
     inkscape:window-maximized="1" />
  <metadata
     id="metadata7">
    <rdf:RDF>
      <cc:Work
         rdf:about="">
        <dc:format>image/svg+xml</dc:format>
        <dc:type
           rdf:resource="http://purl.org/dc/dcmitype/StillImage" />
        <dc:title />
      </cc:Work>
    </rdf:RDF>
  </metadata>
  <g
     inkscape:label="Livello 1"
     inkscape:groupmode="layer"
     id="layer1"
     transform="translate(-470.22167,-458.28705)">
    <g
       id="g2830"
       transform="matrix(0.42353299,0,0,0.42353299,370.29501,451.6514)">
      <path
         style="fill:#2b2111"
         d="m 336.57143,796.24901 c -26.32129,-13.18535 -10.3277,-46.26226 -20.90259,-68.56129 11.46514,-20.81442 1.24901,-45.33749 6.3101,-67.95293 5.01655,-16.68238 -16.5741,-23.47999 -20.41669,-39.03574 -0.6782,-36.92755 -44.75453,-0.51657 -59.15525,-27.81499 -21.72347,-23.78435 16.30431,-59.11993 39.5533,-38.92651 10.16535,4.17973 34.16401,-1.19183 39.23907,-9.06414 -12.25695,-15.5998 -35.24534,-8.17925 -30.00959,-36.45742 19.64703,-151.4537 31.73193,-300.88948 49.90002,-449.218454 1.6241,-9.9359 1.3029,-50.5471583 12.71278,-42.502524 1.76478,30.215751 7.7421,59.741332 11.24545,89.660738 5.46279,30.55748 8.56066,61.49155 12.33981,92.41356 5.38576,27.90821 6.63573,56.06323 10.9744,84.4287 3.00989,29.60617 7.76214,56.43296 13.43289,84.42989 4.92805,27.03217 17.87146,111.52728 21.81063,138.81551 -3.48227,7.77402 9.66307,19.71561 -23.08987,30.89523 12.45162,0.61606 33.27567,-1.03816 42.72698,7.20767 27.65313,8.55092 42.71276,49.7684 11.04056,64.19292 -19.23279,9.13926 -36.64227,-31.15351 -36.79531,4.02351 -2.19693,27.2362 -40.92226,35.64059 -33.57368,66.42132 2.34134,19.79975 -7.65636,34.29355 2.16656,56.38135 -13.56522,16.38546 4.11527,40.31087 -11.64576,53.37455 -10.23742,10.42847 -24.47728,11.04031 -37.86381,7.28905 z m 21,-6.17724 c 38.17895,-13.61635 -3.15249,-51.2428 -26.04396,-29.4656 -13.0103,18.05551 7.12869,35.91552 26.04396,29.4656 z M 338.50276,752.1676 c 14.69999,-17.06062 42.47302,16.44756 40.24839,-18.42704 1.96749,-25.38227 -38.29289,-26.75306 -50.68912,-14.54986 -11.13881,6.58103 -4.07308,37.27012 10.44073,32.9769 z m 33.99234,-45.95137 c 8.55588,-24.83856 6.90301,-58.79059 -27.24006,-49.1453 -26.88026,-11.60941 -25.83411,52.5545 -3.6591,48.52587 10.73033,-1.94093 20.15559,2.48106 30.89916,0.61943 z m 1.56291,-55.94086 c 20.67143,-3.03325 34.88208,-25.31548 37.38873,-45.62747 4.89256,-21.40104 0.15519,-49.9602 -17.36203,-62.49701 -19.67658,3.39425 3.44186,25.11348 -0.49873,37.64274 3.4797,23.36043 -10.39306,50.60856 -36.3426,49.3317 -28.40955,6.16503 -31.20686,-32.68452 -50.96767,-34.02012 -10.64075,21.53876 15.05898,50.94101 36.29572,55.57762 10.26034,2.36617 21.10483,0.10673 31.48658,-0.40746 z m -6.0523,-30.14479 c 34.0905,-18.4486 -55.26368,-17.51944 -29.96672,-1.19631 7.64778,5.31107 21.11343,3.43262 29.96672,1.19631 z m -14.55617,-21.56975 c 24.23457,3.87904 44.81108,-4.3853 30.37637,-31.95819 -6.4852,-24.02816 -44.61652,-14.81884 -59.61542,-6.76277 2.09411,22.00778 -5.30946,49.75569 29.23905,38.72096 z m -9.37811,-11.15186 c -34.40339,-27.21652 52.19857,-37.73657 24.42432,-2.70298 -7.06397,5.11719 -16.38083,2.61881 -24.42432,2.70298 z m 14.81358,-6.48671 c 30.7278,-15.68721 -39.51396,-14.89869 -8.3565,1.15554 l 3.74444,-0.34789 4.61206,-0.80765 z m 94.66722,17.11863 c 28.5387,-20.25697 -10.10737,-55.18375 -35.10074,-50.2421 -17.28517,11.30081 8.51285,42.38122 22.67881,50.81731 3.72971,2.56267 8.7148,1.29096 12.42193,-0.57521 z m -166.4808,-2.547 c 24.38022,8.54516 42.83911,-35.4673 17.73661,-37.62968 -18.59543,23.6214 -48.72082,-22.41935 -60.3164,14.08339 -3.97151,26.6657 23.81789,26.55847 42.57979,23.54629 z m 92.32801,-52.66086 c 15.08426,-22.6067 44.61212,-9.44739 34.34535,-42.10587 -3.67677,-27.91151 -10.45646,-65.3959 -11.77395,-93.49976 -5.30561,-29.56004 -12.66317,-59.18008 -15.21271,-89.12765 -4.0192,-26.97983 -7.57699,-53.82527 -10.39581,-81.12227 -5.4204,-30.26689 -6.17983,-62.51087 -12.54052,-92.64616 -2.51816,-21.44106 -9.91674,-75.846263 -15.06902,-101.049548 -14.87844,147.695858 -31.89399,329.373058 -49.80203,476.765498 13.43091,6.38465 29.60226,27.82668 46.35487,23.88187 11.35051,-0.20645 22.85845,0.58442 34.09382,-1.09611 z"
         id="path2832"
         sodipodi:nodetypes="cccccccccccccccccccccccccccccccccccccccccccccccccccccccccccccccccccccccccc" />
    </g>
    <path
       style="opacity:0.98999999;fill:#f1500f;fill-opacity:1;stroke:none"
       d="m 520.08468,692.8794 c -1.64067,0.13838 -4.75807,0.3782 -4.78638,2.52689 1.37021,2.08237 3.91463,3.66302 6.40412,2.44667 1.55762,-0.59966 4.62113,-1.98431 3.69006,-4.06442 -1.50436,-0.97479 -3.55571,-0.87299 -5.3078,-0.90914 z"
       id="path2875" />
    <path
       style="opacity:0.98999999;fill:#f1500f;fill-opacity:1;stroke:none"
       d="m 519.59,708.54878 c -2.70249,0.30637 -6.51456,0.0522 -8.07535,2.67396 -0.10082,2.34446 3.01198,3.10786 4.77301,3.77028 3.49922,0.58293 7.38347,0.40941 10.61561,-1.06959 1.29815,-0.72085 3.69119,-2.91963 1.7247,-4.21148 -2.7446,-1.34086 -6.05845,-1.10455 -9.03797,-1.16317 z"
       id="path2877" />
    <path
       style="opacity:0.98999999;fill:#f1500f;fill-opacity:1;stroke:none"
       d="m 520.49796,729.07301 c -1.98354,0.14967 -3.96599,0.80965 -5.92757,0.15126 -3.61697,-0.48161 -5.89397,3.27046 -6.34354,6.40026 -0.67346,4.66204 -0.58877,10.25471 2.87397,13.84045 2.35718,2.19992 5.86128,0.74396 8.71614,1.2146 2.69912,0.0503 5.64749,1.0241 8.23463,0.0238 2.00975,-4.53177 2.21318,-9.78908 1.51262,-14.66294 -0.72674,-4.26809 -4.71952,-7.37313 -9.06625,-6.9675 z"
       id="path2883" />
    <path
       style="opacity:0.98999999;fill:#f4ee09;fill-opacity:1;stroke:none"
       d="m 480.41358,687.65901 c -2.77582,-0.22639 -5.07571,1.7893 -5.93702,4.31096 -2.26572,4.15938 -0.42457,10.20605 4.32042,11.60934 5.10908,1.86972 10.66097,0.23995 15.95811,0.77522 5.52297,-0.0131 9.46932,-5.6475 9.82257,-10.7774 0.40676,-2.9098 -0.87218,-6.29398 -4.48577,-5.50215 -1.52119,1.12155 -3.88233,2.74454 -5.99857,2.40128 -4.84672,0.55242 -8.94692,-2.83102 -13.67974,-2.81725 z"
       id="path2885"
       sodipodi:nodetypes="cccccccc" />
    <path
       style="opacity:0.98999999;fill:#f4ee09;fill-opacity:1;stroke:none"
       d="m 521.31099,685.08756 c -4.78635,0.14267 -9.76908,1.23569 -13.81209,3.71537 0.30208,4.84453 -0.35954,9.99551 1.49371,14.58731 1.58207,3.29536 5.95079,3.39767 9.00953,2.49582 4.72344,-0.89849 10.16085,0.81563 14.31315,-2.2122 2.65969,-1.61621 3.09245,-5.05704 2.3351,-7.79944 -1.1062,-4.54498 -3.6768,-9.92205 -8.86772,-10.57887 -1.47732,-0.22356 -2.98092,-0.23093 -4.47168,-0.20799 z m 0.56723,5.03891 c 2.53126,0.0305 6.39512,0.69094 6.56098,3.82881 -0.0273,3.4825 -3.09704,6.81263 -6.73108,6.35943 -1.92017,-0.1089 -4.08063,0.29317 -5.84498,-0.20489 -1.57006,-1.56299 -3.96357,-3.91949 -2.69193,-6.31525 2.00076,-2.68178 5.49707,-3.61798 8.70701,-3.6681 z"
       id="path2887" />
    <path
       style="opacity:0.98999999;fill:#f4ee09;fill-opacity:1;stroke:none"
       d="m 549.02026,683.39532 c -3.17976,-0.15874 -4.65274,3.79194 -3.92335,6.43808 1.29988,5.51215 5.36253,9.90532 9.41884,13.63082 1.90323,1.8721 4.82155,3.15341 7.36176,1.79788 4.50109,-1.99229 6.12904,-8.03457 3.6681,-12.20493 -2.86359,-5.09842 -8.27072,-8.67108 -14.02953,-9.55786 -0.82809,-0.10391 -1.66197,-0.13387 -2.49582,-0.10399 z"
       id="path2889" />
    <path
       style="opacity:0.98999999;fill:#f4ee09;fill-opacity:1;stroke:none"
       d="m 536.41826,681.20202 c -2.11831,0.45285 -3.41914,2.90736 -2.46746,4.93492 1.34669,4.16944 3.48978,8.24804 2.94015,12.77217 0.21645,4.88562 -0.89737,9.98246 -4.08406,13.77427 -2.66327,3.56957 -7.07802,5.45547 -11.51401,5.24007 -2.80391,0.28052 -5.81968,0.0684 -7.96095,-1.92176 -4.29752,-3.53946 -6.42266,-9.35367 -11.3919,-12.09149 -1.35916,-0.80618 -2.69464,0.39823 -2.78889,1.78678 -1.42958,6.49883 2.72385,12.73946 7.33619,16.86569 4.06397,3.76147 9.60943,5.83205 15.16334,5.24714 4.71498,-0.45467 9.95925,-0.22022 13.78254,-3.46909 6.15182,-4.51335 8.99587,-12.11741 9.76328,-19.49274 0.92063,-8.05281 -0.67827,-17.25691 -6.94418,-22.83292 -0.50262,-0.44776 -1.12557,-0.88118 -1.83405,-0.81304 z"
       id="path2891" />
    <path
       style="opacity:0.98999999;fill:#f4ee09;fill-opacity:1;stroke:none"
       d="m 517.96432,753.01356 c -4.29392,0.10462 -9.40993,1.92389 -10.94757,6.28681 -0.71532,3.81998 0.30759,8.52594 3.6681,10.81522 1.37108,0.69467 3.15158,0.578 4.16915,-0.64286 3.09805,-2.33876 6.95918,-0.61107 10.34733,-0.12678 1.82383,0.51411 4.52442,0.4823 5.10028,-1.76399 0.96163,-3.25178 1.12119,-7.14979 -0.64286,-10.144 -2.53917,-3.70209 -7.50789,-4.5523 -11.69443,-4.4244 z"
       id="path2893" />
    <path
       style="opacity:0.98999999;fill:#f4ee09;fill-opacity:1;stroke:none"
       d="m 517.21747,771.01371 c -4.29809,-0.29811 -8.44007,3.24733 -8.39503,7.62927 -0.174,4.011 3.49972,7.44728 7.26056,8.08305 3.25274,0.37331 6.65089,-0.10611 9.29315,-2.15548 2.65742,-1.60277 4.12666,-5.32326 2.22166,-8.04524 -2.07523,-3.5499 -6.19143,-6.01533 -10.38034,-5.5116 z"
       id="path2895" />
    <path
       style="opacity:0.98999999;fill:#d2f2f3;fill-opacity:0.99215686;stroke:#d7e2e5;stroke-width:0.42783293;stroke-opacity:0.20855324"
       d="m 509.75295,676.38948 c 0.51313,2.49136 5.19608,6.18199 15.47056,5.63527 2.5661,-0.0635 5.96613,0.28568 7.49561,-2.36413 3.65467,-3.85314 9.78398,-4.07697 13.07565,-8.26252 1.79711,-3.40328 -0.46193,-7.47952 -0.60007,-11.07854 -2.93888,-17.37489 -3.90508,-35.03575 -7.60869,-52.28488 -3.17958,-16.47712 -4.84501,-33.20007 -7.04438,-49.82692 -2.28387,-17.07493 -4.05056,-34.21829 -6.78026,-51.23121 -1.39273,-11.0617 -2.8898,-27.37741 -5.6569,-37.08328 -7.06079,44.57234 -9.81292,142.92515 -8.35152,206.49621 z"
       sodipodi:nodetypes="cccccccccc" />
    <path
       style="opacity:0.98999999;fill:#8ccce8;fill-opacity:1;stroke:#d7e2e5;stroke-width:0.30488178;stroke-opacity:0.20855324"
       d="m 517.39663,470.82367 c -1.49795,12.07639 -2.50535,24.28175 -3.77735,36.41096 -5.4171,54.66171 -10.62633,109.36052 -17.02896,163.90842 0.3108,1.72927 2.54386,2.05388 3.59092,3.24414 4.20386,2.88787 6.49359,6.94214 11.59751,8.05808 3.76999,0.0637 9.08506,-0.10542 12.86842,-0.20164 1.69036,-0.1891 0.97594,-2.4781 1.55977,-3.62017 0.88352,-5.20222 -0.0833,-10.52761 -0.12459,-15.76273 -0.88445,-19.78118 -1.6386,-39.61558 -2.70885,-59.38514 -1.37119,-33.30508 -2.41481,-66.62364 -3.86501,-99.92582 -0.46329,-10.80518 -0.73045,-21.62735 -1.13818,-32.42842 -0.0386,-0.51624 -0.65848,-0.64428 -0.97368,-0.29768 z"
       id="path2905"
       sodipodi:nodetypes="cccccccccccc" />
  </g>
</svg>
