<?xml version="1.0" encoding="UTF-8"?>
<!-- Created with Inkscape (http://www.inkscape.org/) -->
<svg width="52.917mm" height="87.831mm" version="1.1" viewBox="0 0 52.917 87.831" xmlns="http://www.w3.org/2000/svg" xmlns:xlink="http://www.w3.org/1999/xlink">
 <defs>
  <clipPath id="clipPath17381">
   <rect x="21.798" y="20.913" width="164.4" height="277" rx="4.0097" ry="6" fill="none" stroke="#8ae234" stroke-width=".19679"/>
  </clipPath>
 </defs>
 <g transform="matrix(1 0 0 1.0823 -66.055 -110.49)">
  <g transform="matrix(.26458 0 0 .26458 62.217 -95.783)">
   <g transform="matrix(1.1173,0,0,1.0577,-1.7011,-43.135)">
    <g transform="translate(0,733.36)">
     <g fill="#28284e">
      <rect x="14.5" y="14.5" width="179" height="290" rx="10.529" ry="12.609"/>
      <rect x="20" y="19.5" width="168" height="280" rx="8" ry="8" stroke="#fff" stroke-width="2"/>
     </g>
     <g transform="translate(0 .085835)" clip-path="url(#clipPath17381)">
      <g id="g17178" transform="translate(-.8145)">
       <g id="g17083">
        <g transform="translate(-5.5961e-4,-131.54)">
         <g id="g14999" transform="matrix(-.047858 -3.7995e-5 3.6262e-5 -.050157 123.07 158.98)" fill="#fff">
          <g transform="matrix(.43321 .24965 -.24965 .43321 70.484 -36.632)">
           <path d="m6.9528 181.37c-0.37341-2.0752-1.8561-11.393-3.0396-14.59-3.0247-4.6548 2.0457-10.257 6.3435-7.9227 6.4426 3.0027 18.523 10.101 23.479 11.367 5.7844 2.6294 26.97 7.3924 28.513 7.584 1.9144 0.4326 17.412 2.2558 18.053 2.1982 4.727 0.4969 14.842 1.0651 22.368 0.9977h75.101v-101.83c-0.87882-6.4596-3.0238-14.039-4.9017-19.615-2.0153-6.4068-3.7558-12.861-5.658-19.293-2.2533-6.7324-6.6771-17.346-8.161-19.578-2.5061-5.4082-11.082-11.526-4.4411-17.068 3.112-3.0945 23.367 2.3557 25.132 2.4356 7.1052 1.0807 12.86 0.98732 20.221 1.2146 0.9374 0.03568 9.3922 0.03429 13.034 0.01606-0.0199 7.1747-8e-3 145.81-8e-3 205.38h-205.01c0-1.2361-1.0304-30.068-1.0304-31.304z" fill="#fff"/>
           <path d="m6.9528 243.98c-0.37341 2.0752-1.8561 11.393-3.0396 14.59-3.0247 4.6548 2.0457 10.257 6.3435 7.9227 6.4426-3.0027 18.523-10.101 23.479-11.367 5.7844-2.6294 26.97-7.3924 28.513-7.584 1.9144-0.4326 17.412-2.2558 18.053-2.1982 4.727-0.4969 14.842-1.0651 22.368-0.9977h75.101v101.83c-0.87882 6.4596-3.0238 14.039-4.9017 19.615-2.0153 6.4068-3.7558 12.861-5.658 19.293-2.2533 6.7324-6.6771 17.346-8.161 19.578-2.5061 5.4082-11.082 11.526-4.4411 17.068 3.112 3.0945 23.367-2.3557 25.132-2.4356 7.1052-1.0807 12.86-0.98733 20.221-1.2146 0.9374-0.0357 9.3922-0.0343 13.034-0.0161-0.0199-7.1747-8e-3 -145.81-8e-3 -205.38h-205.01c0 1.2361-1.0304 30.068-1.0304 31.304z" fill="#fff"/>
           <path d="m419.04 181.37c0.37341-2.0752 1.8561-11.393 3.0396-14.59 3.0247-4.6548-2.0457-10.257-6.3435-7.9227-6.4426 3.0027-18.523 10.101-23.479 11.367-5.7844 2.6294-26.97 7.3924-28.513 7.584-1.9144 0.4326-17.412 2.2558-18.053 2.1982-4.727 0.4969-14.842 1.0651-22.368 0.9977h-75.101v-101.83c0.87882-6.4596 3.0238-14.039 4.9017-19.615 2.0153-6.4068 3.7558-12.861 5.658-19.293 2.2533-6.7324 6.6771-17.346 8.161-19.578 2.5061-5.4082 11.082-11.526 4.4411-17.068-3.112-3.0945-23.367 2.3557-25.132 2.4356-7.1052 1.0807-12.86 0.98732-20.221 1.2146-0.9374 0.03568-9.3922 0.03429-13.034 0.01606 0.0199 7.1747 8e-3 145.81 8e-3 205.38h205.01c0-1.2361 1.0304-30.068 1.0304-31.304z" fill="#fff"/>
           <path d="m419.04 243.98c0.37341 2.0752 1.8561 11.393 3.0396 14.59 3.0247 4.6548-2.0457 10.257-6.3435 7.9227-6.4426-3.0027-18.523-10.101-23.479-11.367-5.7844-2.6294-26.97-7.3924-28.513-7.584-1.9144-0.4326-17.412-2.2558-18.053-2.1982-4.727-0.4969-14.842-1.0651-22.368-0.9977h-75.101v101.83c0.87882 6.4596 3.0238 14.039 4.9017 19.615 2.0153 6.4068 3.7558 12.861 5.658 19.293 2.2533 6.7324 6.6771 17.346 8.161 19.578 2.5061 5.4082 11.082 11.526 4.4411 17.068-3.112 3.0945-23.367-2.3557-25.132-2.4356-7.1052-1.0807-12.86-0.98733-20.221-1.2146-0.9374-0.0357-9.3922-0.0343-13.034-0.0161 0.0199-7.1747 8e-3 -145.81 8e-3 -205.38h205.01c0 1.2361 1.0304 30.068 1.0304 31.304z" fill="#fff"/>
          </g>
          <g transform="matrix(-.43281 .25035 -.25035 -.43281 436.96 147.25)">
           <path d="m6.9528 181.37c-0.37341-2.0752-1.8561-11.393-3.0396-14.59-3.0247-4.6548 2.0457-10.257 6.3435-7.9227 6.4426 3.0027 18.523 10.101 23.479 11.367 5.7844 2.6294 26.97 7.3924 28.513 7.584 1.9144 0.4326 17.412 2.2558 18.053 2.1982 4.727 0.4969 14.842 1.0651 22.368 0.9977h75.101v-101.83c-0.87882-6.4596-3.0238-14.039-4.9017-19.615-2.0153-6.4068-3.7558-12.861-5.658-19.293-2.2533-6.7324-6.6771-17.346-8.161-19.578-2.5061-5.4082-11.082-11.526-4.4411-17.068 3.112-3.0945 23.367 2.3557 25.132 2.4356 7.1052 1.0807 12.86 0.98732 20.221 1.2146 0.9374 0.03568 9.3922 0.03429 13.034 0.01606-0.0199 7.1747-8e-3 145.81-8e-3 205.38h-205.01c0-1.2361-1.0304-30.068-1.0304-31.304z" fill="#fff"/>
           <path d="m6.9528 243.98c-0.37341 2.0752-1.8561 11.393-3.0396 14.59-3.0247 4.6548 2.0457 10.257 6.3435 7.9227 6.4426-3.0027 18.523-10.101 23.479-11.367 5.7844-2.6294 26.97-7.3924 28.513-7.584 1.9144-0.4326 17.412-2.2558 18.053-2.1982 4.727-0.4969 14.842-1.0651 22.368-0.9977h75.101v101.83c-0.87882 6.4596-3.0238 14.039-4.9017 19.615-2.0153 6.4068-3.7558 12.861-5.658 19.293-2.2533 6.7324-6.6771 17.346-8.161 19.578-2.5061 5.4082-11.082 11.526-4.4411 17.068 3.112 3.0945 23.367-2.3557 25.132-2.4356 7.1052-1.0807 12.86-0.98733 20.221-1.2146 0.9374-0.0357 9.3922-0.0343 13.034-0.0161-0.0199-7.1747-8e-3 -145.81-8e-3 -205.38h-205.01c0 1.2361-1.0304 30.068-1.0304 31.304z" fill="#fff"/>
           <path d="m419.04 181.37c0.37341-2.0752 1.8561-11.393 3.0396-14.59 3.0247-4.6548-2.0457-10.257-6.3435-7.9227-6.4426 3.0027-18.523 10.101-23.479 11.367-5.7844 2.6294-26.97 7.3924-28.513 7.584-1.9144 0.4326-17.412 2.2558-18.053 2.1982-4.727 0.4969-14.842 1.0651-22.368 0.9977h-75.101v-101.83c0.87882-6.4596 3.0238-14.039 4.9017-19.615 2.0153-6.4068 3.7558-12.861 5.658-19.293 2.2533-6.7324 6.6771-17.346 8.161-19.578 2.5061-5.4082 11.082-11.526 4.4411-17.068-3.112-3.0945-23.367 2.3557-25.132 2.4356-7.1052 1.0807-12.86 0.98732-20.221 1.2146-0.9374 0.03568-9.3922 0.03429-13.034 0.01606 0.0199 7.1747 8e-3 145.81 8e-3 205.38h205.01c0-1.2361 1.0304-30.068 1.0304-31.304z" fill="#fff"/>
           <path d="m419.04 243.98c0.37341 2.0752 1.8561 11.393 3.0396 14.59 3.0247 4.6548-2.0457 10.257-6.3435 7.9227-6.4426-3.0027-18.523-10.101-23.479-11.367-5.7844-2.6294-26.97-7.3924-28.513-7.584-1.9144-0.4326-17.412-2.2558-18.053-2.1982-4.727-0.4969-14.842-1.0651-22.368-0.9977h-75.101v101.83c0.87882 6.4596 3.0238 14.039 4.9017 19.615 2.0153 6.4068 3.7558 12.861 5.658 19.293 2.2533 6.7324 6.6771 17.346 8.161 19.578 2.5061 5.4082 11.082 11.526 4.4411 17.068-3.112 3.0945-23.367-2.3557-25.132-2.4356-7.1052-1.0807-12.86-0.98733-20.221-1.2146-0.9374-0.0357-9.3922-0.0343-13.034-0.0161 0.0199-7.1747 8e-3 -145.81 8e-3 -205.38h205.01c0 1.2361 1.0304 30.068 1.0304 31.304z" fill="#fff"/>
          </g>
          <g transform="matrix(-.43281 .25035 -.25035 -.43281 255.35 462.4)">
           <path d="m6.9528 181.37c-0.37341-2.0752-1.8561-11.393-3.0396-14.59-3.0247-4.6548 2.0457-10.257 6.3435-7.9227 6.4426 3.0027 18.523 10.101 23.479 11.367 5.7844 2.6294 26.97 7.3924 28.513 7.584 1.9144 0.4326 17.412 2.2558 18.053 2.1982 4.727 0.4969 14.842 1.0651 22.368 0.9977h75.101v-101.83c-0.87882-6.4596-3.0238-14.039-4.9017-19.615-2.0153-6.4068-3.7558-12.861-5.658-19.293-2.2533-6.7324-6.6771-17.346-8.161-19.578-2.5061-5.4082-11.082-11.526-4.4411-17.068 3.112-3.0945 23.367 2.3557 25.132 2.4356 7.1052 1.0807 12.86 0.98732 20.221 1.2146 0.9374 0.03568 9.3922 0.03429 13.034 0.01606-0.0199 7.1747-8e-3 145.81-8e-3 205.38h-205.01c0-1.2361-1.0304-30.068-1.0304-31.304z" fill="#fff"/>
           <path d="m6.9528 243.98c-0.37341 2.0752-1.8561 11.393-3.0396 14.59-3.0247 4.6548 2.0457 10.257 6.3435 7.9227 6.4426-3.0027 18.523-10.101 23.479-11.367 5.7844-2.6294 26.97-7.3924 28.513-7.584 1.9144-0.4326 17.412-2.2558 18.053-2.1982 4.727-0.4969 14.842-1.0651 22.368-0.9977h75.101v101.83c-0.87882 6.4596-3.0238 14.039-4.9017 19.615-2.0153 6.4068-3.7558 12.861-5.658 19.293-2.2533 6.7324-6.6771 17.346-8.161 19.578-2.5061 5.4082-11.082 11.526-4.4411 17.068 3.112 3.0945 23.367-2.3557 25.132-2.4356 7.1052-1.0807 12.86-0.98733 20.221-1.2146 0.9374-0.0357 9.3922-0.0343 13.034-0.0161-0.0199-7.1747-8e-3 -145.81-8e-3 -205.38h-205.01c0 1.2361-1.0304 30.068-1.0304 31.304z" fill="#fff"/>
           <path d="m419.04 181.37c0.37341-2.0752 1.8561-11.393 3.0396-14.59 3.0247-4.6548-2.0457-10.257-6.3435-7.9227-6.4426 3.0027-18.523 10.101-23.479 11.367-5.7844 2.6294-26.97 7.3924-28.513 7.584-1.9144 0.4326-17.412 2.2558-18.053 2.1982-4.727 0.4969-14.842 1.0651-22.368 0.9977h-75.101v-101.83c0.87882-6.4596 3.0238-14.039 4.9017-19.615 2.0153-6.4068 3.7558-12.861 5.658-19.293 2.2533-6.7324 6.6771-17.346 8.161-19.578 2.5061-5.4082 11.082-11.526 4.4411-17.068-3.112-3.0945-23.367 2.3557-25.132 2.4356-7.1052 1.0807-12.86 0.98732-20.221 1.2146-0.9374 0.03568-9.3922 0.03429-13.034 0.01606 0.0199 7.1747 8e-3 145.81 8e-3 205.38h205.01c0-1.2361 1.0304-30.068 1.0304-31.304z" fill="#fff"/>
           <path d="m419.04 243.98c0.37341 2.0752 1.8561 11.393 3.0396 14.59 3.0247 4.6548-2.0457 10.257-6.3435 7.9227-6.4426-3.0027-18.523-10.101-23.479-11.367-5.7844-2.6294-26.97-7.3924-28.513-7.584-1.9144-0.4326-17.412-2.2558-18.053-2.1982-4.727-0.4969-14.842-1.0651-22.368-0.9977h-75.101v101.83c0.87882 6.4596 3.0238 14.039 4.9017 19.615 2.0153 6.4068 3.7558 12.861 5.658 19.293 2.2533 6.7324 6.6771 17.346 8.161 19.578 2.5061 5.4082 11.082 11.526 4.4411 17.068-3.112 3.0945-23.367-2.3557-25.132-2.4356-7.1052-1.0807-12.86-0.98733-20.221-1.2146-0.9374-0.0357-9.3922-0.0343-13.034-0.0161 0.0199-7.1747 8e-3 -145.81 8e-3 -205.38h205.01c0 1.2361 1.0304 30.068 1.0304 31.304z" fill="#fff"/>
          </g>
          <g transform="matrix(-.00040262 -.5 .5 -.00040262 94.47 372.69)">
           <path d="m6.9528 181.37c-0.37341-2.0752-1.8561-11.393-3.0396-14.59-3.0247-4.6548 2.0457-10.257 6.3435-7.9227 6.4426 3.0027 18.523 10.101 23.479 11.367 5.7844 2.6294 26.97 7.3924 28.513 7.584 1.9144 0.4326 17.412 2.2558 18.053 2.1982 4.727 0.4969 14.842 1.0651 22.368 0.9977h75.101v-101.83c-0.87882-6.4596-3.0238-14.039-4.9017-19.615-2.0153-6.4068-3.7558-12.861-5.658-19.293-2.2533-6.7324-6.6771-17.346-8.161-19.578-2.5061-5.4082-11.082-11.526-4.4411-17.068 3.112-3.0945 23.367 2.3557 25.132 2.4356 7.1052 1.0807 12.86 0.98732 20.221 1.2146 0.9374 0.03568 9.3922 0.03429 13.034 0.01606-0.0199 7.1747-8e-3 145.81-8e-3 205.38h-205.01c0-1.2361-1.0304-30.068-1.0304-31.304z" fill="#fff"/>
           <path d="m6.9528 243.98c-0.37341 2.0752-1.8561 11.393-3.0396 14.59-3.0247 4.6548 2.0457 10.257 6.3435 7.9227 6.4426-3.0027 18.523-10.101 23.479-11.367 5.7844-2.6294 26.97-7.3924 28.513-7.584 1.9144-0.4326 17.412-2.2558 18.053-2.1982 4.727-0.4969 14.842-1.0651 22.368-0.9977h75.101v101.83c-0.87882 6.4596-3.0238 14.039-4.9017 19.615-2.0153 6.4068-3.7558 12.861-5.658 19.293-2.2533 6.7324-6.6771 17.346-8.161 19.578-2.5061 5.4082-11.082 11.526-4.4411 17.068 3.112 3.0945 23.367-2.3557 25.132-2.4356 7.1052-1.0807 12.86-0.98733 20.221-1.2146 0.9374-0.0357 9.3922-0.0343 13.034-0.0161-0.0199-7.1747-8e-3 -145.81-8e-3 -205.38h-205.01c0 1.2361-1.0304 30.068-1.0304 31.304z" fill="#fff"/>
           <path d="m419.04 181.37c0.37341-2.0752 1.8561-11.393 3.0396-14.59 3.0247-4.6548-2.0457-10.257-6.3435-7.9227-6.4426 3.0027-18.523 10.101-23.479 11.367-5.7844 2.6294-26.97 7.3924-28.513 7.584-1.9144 0.4326-17.412 2.2558-18.053 2.1982-4.727 0.4969-14.842 1.0651-22.368 0.9977h-75.101v-101.83c0.87882-6.4596 3.0238-14.039 4.9017-19.615 2.0153-6.4068 3.7558-12.861 5.658-19.293 2.2533-6.7324 6.6771-17.346 8.161-19.578 2.5061-5.4082 11.082-11.526 4.4411-17.068-3.112-3.0945-23.367 2.3557-25.132 2.4356-7.1052 1.0807-12.86 0.98732-20.221 1.2146-0.9374 0.03568-9.3922 0.03429-13.034 0.01606 0.0199 7.1747 8e-3 145.81 8e-3 205.38h205.01c0-1.2361 1.0304-30.068 1.0304-31.304z" fill="#fff"/>
           <path d="m419.04 243.98c0.37341 2.0752 1.8561 11.393 3.0396 14.59 3.0247 4.6548-2.0457 10.257-6.3435 7.9227-6.4426-3.0027-18.523-10.101-23.479-11.367-5.7844-2.6294-26.97-7.3924-28.513-7.584-1.9144-0.4326-17.412-2.2558-18.053-2.1982-4.727-0.4969-14.842-1.0651-22.368-0.9977h-75.101v101.83c0.87882 6.4596 3.0238 14.039 4.9017 19.615 2.0153 6.4068 3.7558 12.861 5.658 19.293 2.2533 6.7324 6.6771 17.346 8.161 19.578 2.5061 5.4082 11.082 11.526 4.4411 17.068-3.112 3.0945-23.367-2.3557-25.132-2.4356-7.1052-1.0807-12.86-0.98733-20.221-1.2146-0.9374-0.0357-9.3922-0.0343-13.034-0.0161 0.0199-7.1747 8e-3 -145.81 8e-3 -205.38h205.01c0 1.2361 1.0304 30.068 1.0304 31.304z" fill="#fff"/>
          </g>
          <g transform="matrix(.43321 .24965 -.24965 .43321 252.6 278.22)">
           <path d="m6.9528 181.37c-0.37341-2.0752-1.8561-11.393-3.0396-14.59-3.0247-4.6548 2.0457-10.257 6.3435-7.9227 6.4426 3.0027 18.523 10.101 23.479 11.367 5.7844 2.6294 26.97 7.3924 28.513 7.584 1.9144 0.4326 17.412 2.2558 18.053 2.1982 4.727 0.4969 14.842 1.0651 22.368 0.9977h75.101v-101.83c-0.87882-6.4596-3.0238-14.039-4.9017-19.615-2.0153-6.4068-3.7558-12.861-5.658-19.293-2.2533-6.7324-6.6771-17.346-8.161-19.578-2.5061-5.4082-11.082-11.526-4.4411-17.068 3.112-3.0945 23.367 2.3557 25.132 2.4356 7.1052 1.0807 12.86 0.98732 20.221 1.2146 0.9374 0.03568 9.3922 0.03429 13.034 0.01606-0.0199 7.1747-8e-3 145.81-8e-3 205.38h-205.01c0-1.2361-1.0304-30.068-1.0304-31.304z" fill="#fff"/>
           <path d="m6.9528 243.98c-0.37341 2.0752-1.8561 11.393-3.0396 14.59-3.0247 4.6548 2.0457 10.257 6.3435 7.9227 6.4426-3.0027 18.523-10.101 23.479-11.367 5.7844-2.6294 26.97-7.3924 28.513-7.584 1.9144-0.4326 17.412-2.2558 18.053-2.1982 4.727-0.4969 14.842-1.0651 22.368-0.9977h75.101v101.83c-0.87882 6.4596-3.0238 14.039-4.9017 19.615-2.0153 6.4068-3.7558 12.861-5.658 19.293-2.2533 6.7324-6.6771 17.346-8.161 19.578-2.5061 5.4082-11.082 11.526-4.4411 17.068 3.112 3.0945 23.367-2.3557 25.132-2.4356 7.1052-1.0807 12.86-0.98733 20.221-1.2146 0.9374-0.0357 9.3922-0.0343 13.034-0.0161-0.0199-7.1747-8e-3 -145.81-8e-3 -205.38h-205.01c0 1.2361-1.0304 30.068-1.0304 31.304z" fill="#fff"/>
           <path d="m419.04 181.37c0.37341-2.0752 1.8561-11.393 3.0396-14.59 3.0247-4.6548-2.0457-10.257-6.3435-7.9227-6.4426 3.0027-18.523 10.101-23.479 11.367-5.7844 2.6294-26.97 7.3924-28.513 7.584-1.9144 0.4326-17.412 2.2558-18.053 2.1982-4.727 0.4969-14.842 1.0651-22.368 0.9977h-75.101v-101.83c0.87882-6.4596 3.0238-14.039 4.9017-19.615 2.0153-6.4068 3.7558-12.861 5.658-19.293 2.2533-6.7324 6.6771-17.346 8.161-19.578 2.5061-5.4082 11.082-11.526 4.4411-17.068-3.112-3.0945-23.367 2.3557-25.132 2.4356-7.1052 1.0807-12.86 0.98732-20.221 1.2146-0.9374 0.03568-9.3922 0.03429-13.034 0.01606 0.0199 7.1747 8e-3 145.81 8e-3 205.38h205.01c0-1.2361 1.0304-30.068 1.0304-31.304z" fill="#fff"/>
           <path d="m419.04 243.98c0.37341 2.0752 1.8561 11.393 3.0396 14.59 3.0247 4.6548-2.0457 10.257-6.3435 7.9227-6.4426-3.0027-18.523-10.101-23.479-11.367-5.7844-2.6294-26.97-7.3924-28.513-7.584-1.9144-0.4326-17.412-2.2558-18.053-2.1982-4.727-0.4969-14.842-1.0651-22.368-0.9977h-75.101v101.83c0.87882 6.4596 3.0238 14.039 4.9017 19.615 2.0153 6.4068 3.7558 12.861 5.658 19.293 2.2533 6.7324 6.6771 17.346 8.161 19.578 2.5061 5.4082 11.082 11.526 4.4411 17.068-3.112 3.0945-23.367-2.3557-25.132-2.4356-7.1052-1.0807-12.86-0.98733-20.221-1.2146-0.9374-0.0357-9.3922-0.0343-13.034-0.0161 0.0199-7.1747 8e-3 -145.81 8e-3 -205.38h205.01c0 1.2361 1.0304 30.068 1.0304 31.304z" fill="#fff"/>
          </g>
         </g>
         <use transform="translate(0,26.347)" width="208" height="319" xlink:href="#g14999"/>
         <use transform="translate(0,52.695)" width="208" height="319" xlink:href="#g14999"/>
         <use transform="translate(0,79.042)" width="208" height="319" xlink:href="#g14999"/>
         <use transform="translate(0,105.39)" width="208" height="319" xlink:href="#g14999"/>
         <use transform="translate(0,131.74)" width="208" height="319" xlink:href="#g14999"/>
         <use transform="translate(18.613)" width="208" height="319" xlink:href="#g14999"/>
         <use transform="translate(18.613,26.347)" width="208" height="319" xlink:href="#g14999"/>
         <use transform="translate(18.613,52.695)" width="208" height="319" xlink:href="#g14999"/>
         <use transform="translate(18.613,79.042)" width="208" height="319" xlink:href="#g14999"/>
         <use transform="translate(18.613,105.39)" width="208" height="319" xlink:href="#g14999"/>
         <use transform="translate(18.613,131.74)" width="208" height="319" xlink:href="#g14999"/>
         <use transform="translate(37.226)" width="208" height="319" xlink:href="#g14999"/>
         <use transform="translate(37.226,26.347)" width="208" height="319" xlink:href="#g14999"/>
         <use transform="translate(37.226,52.695)" width="208" height="319" xlink:href="#g14999"/>
         <use transform="translate(37.226,79.042)" width="208" height="319" xlink:href="#g14999"/>
         <use transform="translate(37.226,105.39)" width="208" height="319" xlink:href="#g14999"/>
         <use transform="translate(37.226,131.74)" width="208" height="319" xlink:href="#g14999"/>
         <use transform="translate(55.839)" width="208" height="319" xlink:href="#g14999"/>
         <use transform="translate(55.839,26.347)" width="208" height="319" xlink:href="#g14999"/>
         <use transform="translate(55.839,52.695)" width="208" height="319" xlink:href="#g14999"/>
         <use transform="translate(55.839,79.042)" width="208" height="319" xlink:href="#g14999"/>
         <use transform="translate(55.839,105.39)" width="208" height="319" xlink:href="#g14999"/>
         <use transform="translate(55.839,131.74)" width="208" height="319" xlink:href="#g14999"/>
         <use transform="translate(74.452)" width="208" height="319" xlink:href="#g14999"/>
         <use transform="translate(74.452,26.347)" width="208" height="319" xlink:href="#g14999"/>
         <use transform="translate(74.452,52.695)" width="208" height="319" xlink:href="#g14999"/>
         <use transform="translate(74.452,79.042)" width="208" height="319" xlink:href="#g14999"/>
         <use transform="translate(74.452,105.39)" width="208" height="319" xlink:href="#g14999"/>
         <use transform="translate(74.452,131.74)" width="208" height="319" xlink:href="#g14999"/>
        </g>
        <path id="use15304" d="m108.37 156.8c0.75131-0.20864 2.1262-2.1923 2.9506-2.716 0.5835-0.37064 1.1272-0.6726 1.3673-0.75931 0.22365-0.0807 1.3096-0.35121 1.7359-0.33099 0.18964 9e-3 0.35931 6e-3 0.3773-7e-3 0.0193-0.0139 4e-3 -0.0582-0.0384-0.10859-0.0768-0.0921-0.2922-0.71374-0.28642-0.82645 8e-3 -0.13301 0.1479-0.4469 0.36219-0.80618 0.28249-0.47332 0.85005-1.1683 1.1503-1.4084 0.27503-0.21992 0.5452-0.38677 0.78244-0.48325 0.17918-0.0728 0.94123-0.32631 1.1327-0.37672 0.0598-0.0157 0.0488-0.0275-0.0959-0.0961-0.23881-0.11444-0.67617-0.58801-0.76121-0.82448-0.0776-0.21551-0.0451-0.54898 0.0916-0.94274 0.21148-0.60892 0.43425-0.93943 0.82379-1.2222 0.12159-0.0882 0.26805-0.20404 0.32546-0.25726 0.1166-0.10799 0.43141-0.26534 0.6432-0.32126 0.0764-0.0199 0.14359-0.0425 0.14931-0.0493 7e-3 -8e-3 -0.0405-0.0342-0.10397-0.0581-0.15745-0.0656-0.53022-0.51429-0.60378-0.72655-0.16725-0.48206-0.0179-1.289 0.34712-1.8706 0.14184-0.22616 0.6589-0.7762 0.87916-0.93516 0.30052-0.21686 0.30037-0.21583 0.0507-0.32257-0.119-0.0507-0.28176-0.15744-0.36514-0.23084-0.13243-0.12315-0.1529-0.15922-0.18473-0.32715-0.0763-0.40496 4e-3 -1.3187 0.17073-1.9475 0.0853-0.32128-0.5272-2.8716-0.5272-2.8716s-2.493 0.81488-2.7219 1.0558c-0.44805 0.47168-1.1843 1.0188-1.5692 1.166-0.15971 0.0608-0.20116 0.0624-0.37543 0.0142-0.10622-0.0324-0.28237-0.11529-0.38797-0.18999-0.22171-0.15667-0.22092-0.15737-0.24812 0.21227-0.02 0.27089-0.21747 0.99952-0.33574 1.2388-0.30421 0.61533-0.91304 1.1658-1.4112 1.2759-0.21934 0.0486-0.79678-0.0338-0.93521-0.13346-0.0538-0.0415-0.10087-0.0677-0.10395-0.0581-3e-3 9e-3 0.0132 0.0776 0.0361 0.15297 0.0635 0.2097 0.0943 0.56025 0.0634 0.71615-0.0153 0.0769-0.0371 0.26223-0.0486 0.41202-0.0367 0.47997-0.20147 0.84291-0.60924 1.3421-0.2637 0.32283-0.53071 0.52521-0.75492 0.57207-0.24596 0.0515-0.87848-0.0728-1.1011-0.21624-0.13431-0.0874-0.14995-0.0907-0.13205-0.0313 0.0575 0.18948 0.24085 0.97134 0.27274 1.1621 0.0422 0.25262 0.0417 0.57013-2e-3 0.91963-0.0472 0.38158-0.34165 1.2292-0.59673 1.7178-0.19369 0.37077-0.38712 0.65541-0.49681 0.73096-0.0929 0.064-0.73539 0.20629-0.85397 0.18916-0.0651-0.01-0.11077 2e-4 -0.11253 0.0241-7.6e-4 0.0223 0.0843 0.16843 0.19113 0.32537 0.24063 0.35245 0.57937 1.4191 0.62782 1.6519 0.052 0.24993 0.0798 0.87126 0.0698 1.5624-0.0143 0.9766-0.98298 3.1871-0.76696 3.9363 0.13893 0.48176-0.5241 1.8954-0.0424 2.3406 0.63149 0.17694 1.488-1.1286 1.9712-1.2628z" fill="#28284e" stroke="#fff" stroke-linecap="square" stroke-width=".96903"/>
        <path id="path14506" d="m108.5 158.23c0 0.66236-0.55381 1.1993-1.237 1.1993h-2.4739v-2.3986c0-0.66236 0.55381-1.1993 1.237-1.1993s1.237 0.53695 1.237 1.1993c0.68315 0 1.237 0.53695 1.237 1.1993z" fill="#28284e" stroke="#fff"/>
        <g id="g15298" transform="translate(.18993 1.0004)">
         <use transform="rotate(-90,108.35,154.87)" width="208" height="319" xlink:href="#path14506"/>
         <use transform="translate(8.092,-1.0004)" width="208" height="319" xlink:href="#path14506"/>
        </g>
        <use id="use15302" transform="rotate(90,113.1,151.12)" width="208" height="319" xlink:href="#g15298"/>
        <use transform="translate(12.72,-22.472)" width="208" height="319" xlink:href="#use15304"/>
        <use transform="translate(25.483,-44.838)" width="208" height="319" xlink:href="#use15304"/>
        <use transform="translate(38.034,-66.992)" width="208" height="319" xlink:href="#use15304"/>
        <use transform="translate(50.686,-89.314)" width="208" height="319" xlink:href="#use15304"/>
        <use transform="translate(62.924,-111.09)" width="208" height="319" xlink:href="#use15304"/>
        <g transform="translate(.848 -1.802)">
         <use transform="translate(67.743,-132.73)" width="208" height="319" xlink:href="#g15298"/>
         <use transform="matrix(1,0,0,-1,67.743,186.13)" width="208" height="319" xlink:href="#g15298"/>
        </g>
        <use transform="translate(0,-82.821)" width="208" height="319" xlink:href="#use15302"/>
        <use transform="translate(0,-74.539)" width="208" height="319" xlink:href="#use15302"/>
        <use transform="translate(0,-66.257)" width="208" height="319" xlink:href="#use15302"/>
        <use transform="translate(0,-57.975)" width="208" height="319" xlink:href="#use15302"/>
        <use transform="translate(0,-49.692)" width="208" height="319" xlink:href="#use15302"/>
        <use transform="translate(0,-41.41)" width="208" height="319" xlink:href="#use15302"/>
        <use transform="translate(0,-33.128)" width="208" height="319" xlink:href="#use15302"/>
        <use transform="translate(0,-24.846)" width="208" height="319" xlink:href="#use15302"/>
        <use transform="translate(0,-16.564)" width="208" height="319" xlink:href="#use15302"/>
        <use transform="translate(0,-8.2821)" width="208" height="319" xlink:href="#use15302"/>
        <use transform="translate(0,-91.103)" width="208" height="319" xlink:href="#use15302"/>
        <use transform="translate(0,-99.385)" width="208" height="319" xlink:href="#use15302"/>
        <use transform="translate(8.282)" width="208" height="319" xlink:href="#g15298"/>
        <use transform="translate(16.564)" width="208" height="319" xlink:href="#g15298"/>
        <use transform="translate(24.846)" width="208" height="319" xlink:href="#g15298"/>
        <use transform="translate(33.128)" width="208" height="319" xlink:href="#g15298"/>
        <use transform="translate(41.41)" width="208" height="319" xlink:href="#g15298"/>
        <use transform="translate(49.692)" width="208" height="319" xlink:href="#g15298"/>
        <use transform="matrix(0,-1,-1,0,208.06,264.16)" width="208" height="319" fill="#28284e" xlink:href="#path4813"/>
        <use transform="translate(0,-107.67)" width="208" height="319" xlink:href="#use15302"/>
        <path id="path4813" d="m104.25 24.217 0.61897-1.8259s0.78491 1.3279 0.86721 1.6499c0.16098 0.63032 0.53689 1.4671 0.80101 1.7834 0.10969 0.13138 0.14515 0.15294 0.32081 0.19549 0.1086 0.02593 0.30274 0.03669 0.43138 0.02303 0.26994-0.0286 0.26957-0.02955 0.11302 0.30634-0.11473 0.24622-0.29776 0.97854-0.31126 1.2452-0.0346 0.68555 0.22838 1.463 0.60954 1.8023 0.16776 0.14934 0.71203 0.3591 0.8815 0.33968 0.0671-0.0078 0.12109-0.0068 0.11909 2e-3s-0.0494 0.06094-0.10631 0.11579c-0.1576 0.15218-0.35565 0.44306-0.40475 0.59423-0.0242 0.07451-0.0956 0.24702-0.15861 0.38338-0.2021 0.43683-0.23532 0.83401-0.1229 1.4687 0.0727 0.41051 0.2071 0.71742 0.37993 0.86771 0.18959 0.16488 0.80238 0.36502 1.0667 0.34833 0.15985-0.01005 0.17505-0.0058 0.13055 0.03728-0.14254 0.13743-0.6841 0.73046-0.80501 0.88146-0.16001 0.19989-0.31447 0.47738-0.44728 0.80353-0.14498 0.35608-0.30149 1.2396-0.31709 1.7906-0.0118 0.41811 0.0181 0.76096 0.0771 0.88041 0.0499 0.10121 0.54133 0.5389 0.65318 0.58174 0.0614 0.02352 0.0964 0.05455 0.0864 0.07651-9e-3 0.02032-0.15579 0.10614-0.32558 0.19075-0.38203 0.19032-1.1981 0.95616-1.3539 1.1358-0.16731 0.19281-0.49462 0.7216-0.82317 1.3298-0.46418 0.85931-0.80755 3.2617-1.3616 3.8103l-0.9205-2.0605" fill="#28284e" stroke="#fff" stroke-linecap="square"/>
       </g>
       <use transform="matrix(-1,0,0,1,209.63,1.7445e-6)" width="208" height="319" xlink:href="#g17083"/>
      </g>
      <use transform="matrix(1,0,0,-1,3.8986e-7,318.83)" width="208" height="319" xlink:href="#g17178"/>
     </g>
    </g>
   </g>
  </g>
 </g>
</svg>
